<svg width="1200" height="300" viewBox="0 0 1200 300" fill="none" xmlns="http://www.w3.org/2000/svg">
  <defs>
    <linearGradient id="bg" x1="0" y1="0" x2="1200" y2="300" gradientUnits="userSpaceOnUse">
      <stop stop-color="#0a0a0a"/>
      <stop offset="1" stop-color="#1a1033"/>
    </linearGradient>
    <linearGradient id="accent" x1="0" y1="150" x2="1200" y2="150" gradientUnits="userSpaceOnUse">
      <stop stop-color="#8E59FF"/>
      <stop offset="1" stop-color="#6888F9"/>
    </linearGradient>
    <linearGradient id="accent2" x1="0" y1="150" x2="1200" y2="150" gradientUnits="userSpaceOnUse">
      <stop stop-color="#8E59FF" stop-opacity="0.15"/>
      <stop offset="1" stop-color="#6888F9" stop-opacity="0.15"/>
    </linearGradient>
  </defs>
  <rect width="1200" height="300" fill="url(#bg)"/>
  <!-- Grid pattern -->
  <g opacity="0.08">
    <line x1="200" y1="0" x2="200" y2="300" stroke="#8E59FF" stroke-width="0.5"/>
    <line x1="400" y1="0" x2="400" y2="300" stroke="#8E59FF" stroke-width="0.5"/>
    <line x1="600" y1="0" x2="600" y2="300" stroke="#8E59FF" stroke-width="0.5"/>
    <line x1="800" y1="0" x2="800" y2="300" stroke="#8E59FF" stroke-width="0.5"/>
    <line x1="1000" y1="0" x2="1000" y2="300" stroke="#8E59FF" stroke-width="0.5"/>
    <line x1="0" y1="75" x2="1200" y2="75" stroke="#8E59FF" stroke-width="0.5"/>
    <line x1="0" y1="150" x2="1200" y2="150" stroke="#8E59FF" stroke-width="0.5"/>
    <line x1="0" y1="225" x2="1200" y2="225" stroke="#8E59FF" stroke-width="0.5"/>
  </g>
  <!-- Tangle Knot icon -->
  <g transform="translate(430, 80) scale(0.85)">
    <path d="M170.74 150.082C170.747 142.848 167.464 135.908 161.612 130.784C155.76 125.66 147.818 122.772 139.528 122.754L104.921 122.754C104.704 119.939 104.567 117.062 104.567 114.078C104.567 111.095 104.429 108.231 104.236 105.403L139.528 105.403C147.746 105.288 155.582 102.359 161.347 97.2467C167.112 92.135 170.343 85.2506 170.343 78.0787C170.343 70.9069 167.112 64.0225 161.347 58.9107C155.582 53.799 147.746 50.8696 139.528 50.7545L56.817 50.7545C48.5993 50.8696 40.7628 53.799 34.9981 58.9107C29.2334 64.0225 26.0025 70.9069 26.0025 78.0787C26.0025 85.2506 29.2334 92.135 34.9981 97.2467C40.7628 102.359 48.5993 105.288 56.817 105.403L89.3238 106.163C91.5854 106.163 91.7785 111.095 91.7785 114.078C91.7785 117.062 91.9156 119.925 92.1091 122.754L56.817 122.754C48.5993 122.869 40.7628 125.798 34.9981 130.91C29.2334 136.022 26.0025 142.906 26.0025 150.078C26.0025 157.25 29.2334 164.134 34.9981 169.246C40.7628 174.358 48.5993 177.287 56.817 177.402L139.528 177.402C147.816 177.384 155.757 174.497 161.609 169.374C167.461 164.252 170.745 157.314 170.74 150.082Z" fill="url(#accent)"/>
    <path opacity="0.6" d="M170.74 78.0752C170.747 85.3089 167.463 92.2492 161.612 97.3728C155.76 102.496 147.817 105.384 139.527 105.403L104.92 105.403C104.702 108.217 104.565 111.095 104.565 114.078C104.565 117.062 104.428 119.925 104.235 122.754L139.527 122.754C147.745 122.869 155.582 125.798 161.347 130.91C167.112 136.022 170.342 142.906 170.342 150.078C170.342 157.25 167.112 164.134 161.347 169.246C155.582 174.358 147.745 177.287 139.527 177.402L56.8149 177.402C48.597 177.287 40.7604 174.358 34.9956 169.246C29.2307 164.134 25.9998 157.25 25.9998 150.078C25.9998 142.906 29.2307 136.022 34.9956 130.91C40.7604 125.798 48.597 122.869 56.8149 122.754L89.3223 121.994C91.5839 121.994 91.777 117.062 91.777 114.078C91.777 111.095 91.9141 108.231 92.1076 105.403L56.8149 105.403C48.597 105.288 40.7604 102.359 34.9956 97.2468C29.2307 92.135 25.9998 85.2506 25.9998 78.0788C25.9998 70.9069 29.2307 64.0225 34.9956 58.9108C40.7604 53.799 48.597 50.8696 56.8149 50.7545L139.527 50.7545C147.816 50.7731 155.757 53.6602 161.609 58.7823C167.46 63.9043 170.744 70.8428 170.74 78.0752Z" fill="url(#accent)"/>
  </g>
  <!-- Text -->
  <text x="600" y="215" text-anchor="middle" fill="white" font-family="system-ui, -apple-system, sans-serif" font-size="42" font-weight="700" letter-spacing="-1">Sandbox UI</text>
  <text x="600" y="250" text-anchor="middle" fill="url(#accent)" font-family="system-ui, -apple-system, sans-serif" font-size="16" font-weight="500" letter-spacing="3">REACT COMPONENTS FOR AI AGENT INTERFACES</text>
  <!-- Accent lines -->
  <rect x="0" y="0" width="1200" height="2" fill="url(#accent)" opacity="0.6"/>
  <rect x="0" y="298" width="1200" height="2" fill="url(#accent)" opacity="0.6"/>
</svg>
